<svg width="33" height="55" viewBox="0 0 33 55" fill="none" xmlns="http://www.w3.org/2000/svg">
<path d="M18.0801 0.735546C13.8892 0.287015 9.68214 1.43644 6.38445 3.93096C3.08676 6.42548 0.96855 10.0608 0.495813 14.0371C-0.488612 22.3173 4.10909 40.2981 12.4916 47.7414C16.4386 33.4807 30.2694 25.022 32.0994 17.4195C34.0549 9.29587 26.8072 1.66957 18.0801 0.735546Z" fill="#EE24FF"/>
<path d="M15.1816 19.1434C18.0458 19.1434 20.3678 16.9404 20.3678 14.2228C20.3678 11.5052 18.0458 9.30215 15.1816 9.30215C12.3173 9.30215 9.99542 11.5052 9.99542 14.2228C9.99542 16.9404 12.3173 19.1434 15.1816 19.1434Z" fill="white"/>
<path d="M9.72856 54.8363C11.6046 54.8363 13.1254 53.3933 13.1254 51.6134C13.1254 49.8334 11.6046 48.3905 9.72856 48.3905C7.85254 48.3905 6.33173 49.8334 6.33173 51.6134C6.33173 53.3933 7.85254 54.8363 9.72856 54.8363Z" fill="#EE24FF"/>
<path opacity="0.2" d="M19.4726 10.6974C20.0564 11.0302 20.5653 11.4689 20.9704 11.9883C21.3755 12.5078 21.6688 13.0978 21.8336 13.7248C21.9983 14.3518 22.0313 15.0034 21.9306 15.6425C21.8299 16.2816 21.5975 16.8956 21.2468 17.4494C20.896 18.0033 20.4337 18.4862 19.8862 18.8705C19.3387 19.2549 18.7168 19.5332 18.056 19.6895C17.3952 19.8458 16.7084 19.8771 16.0348 19.7815C15.3613 19.686 14.7141 19.4655 14.1304 19.1327C15.3324 19.3864 16.5904 19.226 17.6791 18.6801C18.7679 18.1341 19.6163 17.2384 20.0726 16.1532C20.5289 15.068 20.5633 13.8641 20.1695 12.7571C19.7758 11.65 18.9796 10.7121 17.9236 10.1111C18.4699 10.226 18.993 10.424 19.4726 10.6974Z" fill="#231F20"/>
<path opacity="0.2" d="M32.1197 17.4354C30.2897 25.0379 16.4589 33.4966 12.512 47.7573C11.7236 47.0506 10.9914 46.2895 10.3214 45.4803C14.7566 32.0756 27.7265 23.9304 29.4947 16.585C31.0773 10.0107 26.6319 3.76276 20.2532 1.12341C27.9746 2.96504 33.9118 9.99088 32.1197 17.4354Z" fill="#231F20"/>
</svg>
